
<svg version="1.0" xmlns="http://www.w3.org/2000/svg"
 width="170.000000pt" height="200.000000pt" viewBox="0 0 170.000000 200.000000"
 preserveAspectRatio="xMidYMid meet">

<g transform="translate(0.000000,200.000000) scale(0.100000,-0.100000)"
fill="#000000" stroke="none">
<path d="M1538 1958 c-132 -162 -228 -370 -265 -572 -34 -184 -18 -489 33
-647 l15 -46 75 -13 c42 -6 77 -10 79 -8 2 2 -6 39 -17 83 -30 113 -32 475 -5
610 35 171 93 310 193 462 46 68 54 88 54 127 l0 46 -64 0 c-63 0 -64 -1 -98
-42z"/>
<path d="M920 1762 l-84 -47 -24 -75 c-12 -41 -37 -140 -53 -220 -27 -128 -31
-171 -36 -365 -5 -196 -3 -234 17 -349 12 -71 30 -157 41 -191 17 -56 22 -63
50 -69 17 -3 35 -6 39 -6 4 0 10 21 14 48 3 26 13 59 20 74 13 24 12 32 -5 67
-50 103 -87 396 -74 581 13 195 64 379 145 526 22 41 39 74 38 74 -2 -1 -41
-22 -88 -48z"/>
</g>
</svg>
